<mxfile host="Electron" agent="Mozilla/5.0 (X11; Linux x86_64) AppleWebKit/537.36 (KHTML, like Gecko) draw.io/24.7.17 Chrome/128.0.6613.36 Electron/32.0.1 Safari/537.36" version="24.7.17">
  <diagram id="preprocessing" name="Preprocessing Pipeline">
    <mxGraphModel dx="1941" dy="2116" grid="1" gridSize="10" guides="1" tooltips="1" connect="1" arrows="1" fold="1" page="1" pageScale="1" pageWidth="827" pageHeight="1169" math="0" shadow="0">
      <root>
        <mxCell id="0" />
        <mxCell id="1" parent="0" />
        <mxCell id="0RdHX4QLqhJlG7mHTZc2-48" value="" style="edgeStyle=orthogonalEdgeStyle;rounded=0;orthogonalLoop=1;jettySize=auto;html=1;" edge="1" parent="1" source="in1" target="run">
          <mxGeometry relative="1" as="geometry" />
        </mxCell>
        <mxCell id="in1" value="train_df (Spark)" style="rounded=1;whiteSpace=wrap;html=1;fillColor=#ff6666;strokeColor=#000000;shadow=1;fontSize=14;" parent="1" vertex="1">
          <mxGeometry x="570" y="-20" width="140" height="40" as="geometry" />
        </mxCell>
        <mxCell id="0RdHX4QLqhJlG7mHTZc2-50" style="edgeStyle=orthogonalEdgeStyle;rounded=0;orthogonalLoop=1;jettySize=auto;html=1;entryX=1;entryY=0.25;entryDx=0;entryDy=0;" edge="1" parent="1" source="in2" target="run">
          <mxGeometry relative="1" as="geometry" />
        </mxCell>
        <mxCell id="in2" value="valid_df (Spark)" style="rounded=1;whiteSpace=wrap;html=1;fillColor=#ff6666;strokeColor=#000000;shadow=1;fontSize=14;" parent="1" vertex="1">
          <mxGeometry x="570" y="40" width="140" height="40" as="geometry" />
        </mxCell>
        <mxCell id="0RdHX4QLqhJlG7mHTZc2-42" style="edgeStyle=orthogonalEdgeStyle;rounded=0;orthogonalLoop=1;jettySize=auto;html=1;exitX=0;exitY=0.5;exitDx=0;exitDy=0;entryX=1;entryY=0.5;entryDx=0;entryDy=0;" edge="1" parent="1" source="in3" target="run">
          <mxGeometry relative="1" as="geometry" />
        </mxCell>
        <mxCell id="in3" value="scoring_df (Spark) опц." style="rounded=1;whiteSpace=wrap;html=1;fillColor=#ff6666;strokeColor=#000000;shadow=1;fontSize=14;" parent="1" vertex="1">
          <mxGeometry x="570" y="110" width="140" height="40" as="geometry" />
        </mxCell>
        <mxCell id="0RdHX4QLqhJlG7mHTZc2-47" value="" style="edgeStyle=orthogonalEdgeStyle;rounded=0;orthogonalLoop=1;jettySize=auto;html=1;" edge="1" parent="1" source="run">
          <mxGeometry relative="1" as="geometry">
            <mxPoint x="420" y="160" as="targetPoint" />
          </mxGeometry>
        </mxCell>
        <mxCell id="run" value=".run_preprocessing()" style="rounded=1;whiteSpace=wrap;html=1;fillColor=#0050ef;strokeColor=#001DBC;fontColor=#ffffff;shadow=1;fontSize=14;" parent="1" vertex="1">
          <mxGeometry x="330" y="70" width="180" height="60" as="geometry" />
        </mxCell>
        <mxCell id="0RdHX4QLqhJlG7mHTZc2-51" style="edgeStyle=orthogonalEdgeStyle;rounded=0;orthogonalLoop=1;jettySize=auto;html=1;exitX=0.5;exitY=1;exitDx=0;exitDy=0;entryX=0.5;entryY=0;entryDx=0;entryDy=0;" edge="1" parent="1" source="sampling" target="init_cols">
          <mxGeometry relative="1" as="geometry" />
        </mxCell>
        <mxCell id="sampling" value="sampling – сэмплирование данных" style="rounded=1;whiteSpace=wrap;html=1;fillColor=#0050ef;strokeColor=#001DBC;fontColor=#ffffff;shadow=1;fontSize=14;" parent="1" vertex="1">
          <mxGeometry x="220" y="160" width="260" height="60" as="geometry" />
        </mxCell>
        <mxCell id="CmgywpFn_wHd5K9U7j7T-5" style="edgeStyle=orthogonalEdgeStyle;rounded=0;orthogonalLoop=1;jettySize=auto;html=1;exitX=0.5;exitY=1;exitDx=0;exitDy=0;entryX=0.5;entryY=0;entryDx=0;entryDy=0;shadow=1;fontSize=14;" parent="1" source="init_cols" target="rebal" edge="1">
          <mxGeometry relative="1" as="geometry" />
        </mxCell>
        <mxCell id="init_cols" value="определение типов фичей" style="rounded=1;whiteSpace=wrap;html=1;fillColor=#0050ef;strokeColor=#001DBC;fontColor=#ffffff;shadow=1;fontSize=14;" parent="1" vertex="1">
          <mxGeometry x="220" y="240" width="260" height="60" as="geometry" />
        </mxCell>
        <mxCell id="rebal" value="rebalancing – ребалансировка таргета" style="rounded=1;whiteSpace=wrap;html=1;fillColor=#0050ef;strokeColor=#001DBC;fontColor=#ffffff;shadow=1;fontSize=14;" parent="1" vertex="1">
          <mxGeometry x="220" y="320" width="260" height="60" as="geometry" />
        </mxCell>
        <mxCell id="drop_force" value="drop_forced_cols – удаление фичей по списку" style="rounded=1;whiteSpace=wrap;html=1;fillColor=#0050ef;strokeColor=#001DBC;fontColor=#ffffff;shadow=1;fontSize=14;" parent="1" vertex="1">
          <mxGeometry x="220" y="400" width="260" height="60" as="geometry" />
        </mxCell>
        <mxCell id="conv_dec" value="convert_decimal – decimal → float" style="rounded=1;whiteSpace=wrap;html=1;fillColor=#0050ef;strokeColor=#001DBC;fontColor=#ffffff;shadow=1;fontSize=14;" parent="1" vertex="1">
          <mxGeometry x="220" y="480" width="260" height="60" as="geometry" />
        </mxCell>
        <mxCell id="0RdHX4QLqhJlG7mHTZc2-1" style="edgeStyle=orthogonalEdgeStyle;rounded=0;orthogonalLoop=1;jettySize=auto;html=1;exitX=0.5;exitY=1;exitDx=0;exitDy=0;entryX=0.5;entryY=0;entryDx=0;entryDy=0;shadow=1;fontSize=14;" edge="1" parent="1" source="fill_na" target="drop_uninf">
          <mxGeometry relative="1" as="geometry" />
        </mxCell>
        <mxCell id="fill_na" value="fill_missing – заполнение пропусков" style="rounded=1;whiteSpace=wrap;html=1;fillColor=#0050ef;strokeColor=#001DBC;fontColor=#ffffff;shadow=1;fontSize=14;" parent="1" vertex="1">
          <mxGeometry x="220" y="560" width="260" height="60" as="geometry" />
        </mxCell>
        <mxCell id="0RdHX4QLqhJlG7mHTZc2-2" style="edgeStyle=orthogonalEdgeStyle;rounded=0;orthogonalLoop=1;jettySize=auto;html=1;exitX=0.5;exitY=1;exitDx=0;exitDy=0;entryX=0.5;entryY=0;entryDx=0;entryDy=0;shadow=1;fontSize=14;" edge="1" parent="1" source="drop_uninf" target="dedup">
          <mxGeometry relative="1" as="geometry" />
        </mxCell>
        <mxCell id="drop_uninf" value="drop_uninformative – удаление малоинформативных фичей" style="rounded=1;whiteSpace=wrap;html=1;fillColor=#0050ef;strokeColor=#001DBC;fontColor=#ffffff;shadow=1;fontSize=14;" parent="1" vertex="1">
          <mxGeometry x="200" y="640" width="300" height="60" as="geometry" />
        </mxCell>
        <mxCell id="0RdHX4QLqhJlG7mHTZc2-5" style="edgeStyle=orthogonalEdgeStyle;rounded=0;orthogonalLoop=1;jettySize=auto;html=1;exitX=0.5;exitY=1;exitDx=0;exitDy=0;entryX=0.5;entryY=0;entryDx=0;entryDy=0;shadow=1;fontSize=14;" edge="1" parent="1" source="dedup" target="cat_enc">
          <mxGeometry relative="1" as="geometry" />
        </mxCell>
        <mxCell id="dedup" value="deduplicate – удаление дубликатов" style="rounded=1;whiteSpace=wrap;html=1;fillColor=#0050ef;strokeColor=#001DBC;fontColor=#ffffff;shadow=1;fontSize=14;" parent="1" vertex="1">
          <mxGeometry x="220" y="720" width="260" height="60" as="geometry" />
        </mxCell>
        <mxCell id="CmgywpFn_wHd5K9U7j7T-25" style="edgeStyle=orthogonalEdgeStyle;rounded=0;orthogonalLoop=1;jettySize=auto;html=1;exitX=1;exitY=0.5;exitDx=0;exitDy=0;entryX=0;entryY=0.5;entryDx=0;entryDy=0;shadow=1;fontSize=14;" parent="1" source="cat_enc" target="CmgywpFn_wHd5K9U7j7T-24" edge="1">
          <mxGeometry relative="1" as="geometry" />
        </mxCell>
        <mxCell id="0RdHX4QLqhJlG7mHTZc2-6" style="edgeStyle=orthogonalEdgeStyle;rounded=0;orthogonalLoop=1;jettySize=auto;html=1;exitX=0.5;exitY=1;exitDx=0;exitDy=0;entryX=0.5;entryY=0;entryDx=0;entryDy=0;shadow=1;fontSize=14;" edge="1" parent="1" source="cat_enc" target="CmgywpFn_wHd5K9U7j7T-6">
          <mxGeometry relative="1" as="geometry" />
        </mxCell>
        <mxCell id="cat_enc" value="categorical_encoding – кодирование категориальных фичей" style="rounded=1;whiteSpace=wrap;html=1;fillColor=#0050ef;strokeColor=#001DBC;fontColor=#ffffff;shadow=1;fontSize=14;" parent="1" vertex="1">
          <mxGeometry x="200" y="800" width="300" height="60" as="geometry" />
        </mxCell>
        <mxCell id="CmgywpFn_wHd5K9U7j7T-32" style="edgeStyle=orthogonalEdgeStyle;rounded=0;orthogonalLoop=1;jettySize=auto;html=1;exitX=0.5;exitY=1;exitDx=0;exitDy=0;entryX=0.5;entryY=0;entryDx=0;entryDy=0;shadow=1;" parent="1" source="fs_noise" target="save_art" edge="1">
          <mxGeometry relative="1" as="geometry" />
        </mxCell>
        <mxCell id="CmgywpFn_wHd5K9U7j7T-34" style="edgeStyle=orthogonalEdgeStyle;rounded=0;orthogonalLoop=1;jettySize=auto;html=1;exitX=0.5;exitY=1;exitDx=0;exitDy=0;entryX=0.5;entryY=0;entryDx=0;entryDy=0;shadow=1;" parent="1" source="fs_perm" target="save_art" edge="1">
          <mxGeometry relative="1" as="geometry" />
        </mxCell>
        <mxCell id="CmgywpFn_wHd5K9U7j7T-17" style="edgeStyle=orthogonalEdgeStyle;rounded=0;orthogonalLoop=1;jettySize=auto;html=1;exitX=0.5;exitY=1;exitDx=0;exitDy=0;entryX=0.5;entryY=0;entryDx=0;entryDy=0;shadow=1;fontSize=14;" parent="1" source="save_art" target="save_res" edge="1">
          <mxGeometry relative="1" as="geometry" />
        </mxCell>
        <mxCell id="CmgywpFn_wHd5K9U7j7T-30" style="edgeStyle=orthogonalEdgeStyle;rounded=0;orthogonalLoop=1;jettySize=auto;html=1;exitX=1;exitY=0.5;exitDx=0;exitDy=0;entryX=0;entryY=0.5;entryDx=0;entryDy=0;shadow=1;fontSize=14;" parent="1" source="save_art" target="CmgywpFn_wHd5K9U7j7T-26" edge="1">
          <mxGeometry relative="1" as="geometry" />
        </mxCell>
        <mxCell id="CmgywpFn_wHd5K9U7j7T-31" style="edgeStyle=orthogonalEdgeStyle;rounded=0;orthogonalLoop=1;jettySize=auto;html=1;exitX=1;exitY=0.5;exitDx=0;exitDy=0;entryX=0;entryY=0.5;entryDx=0;entryDy=0;shadow=1;fontSize=14;" parent="1" source="save_art" target="CmgywpFn_wHd5K9U7j7T-27" edge="1">
          <mxGeometry relative="1" as="geometry" />
        </mxCell>
        <mxCell id="save_art" value="save_artifacts_info – сохранение артефактов" style="rounded=1;whiteSpace=wrap;html=1;fillColor=#0050ef;strokeColor=#FFFFFF;fontColor=#ffffff;shadow=1;fontSize=14;" parent="1" vertex="1">
          <mxGeometry x="200" y="1390" width="300" height="60" as="geometry" />
        </mxCell>
        <mxCell id="CmgywpFn_wHd5K9U7j7T-19" style="edgeStyle=orthogonalEdgeStyle;rounded=0;orthogonalLoop=1;jettySize=auto;html=1;exitX=0.5;exitY=1;exitDx=0;exitDy=0;entryX=0.5;entryY=0;entryDx=0;entryDy=0;shadow=1;fontSize=14;" parent="1" source="save_res" target="out1" edge="1">
          <mxGeometry relative="1" as="geometry" />
        </mxCell>
        <mxCell id="CmgywpFn_wHd5K9U7j7T-20" style="edgeStyle=orthogonalEdgeStyle;rounded=0;orthogonalLoop=1;jettySize=auto;html=1;exitX=0.5;exitY=1;exitDx=0;exitDy=0;entryX=0.5;entryY=0;entryDx=0;entryDy=0;shadow=1;fontSize=14;" parent="1" source="save_res" target="out2" edge="1">
          <mxGeometry relative="1" as="geometry" />
        </mxCell>
        <mxCell id="save_res" value="save_results – сохранение выборок" style="rounded=1;whiteSpace=wrap;html=1;fillColor=#0050ef;strokeColor=#FFFFFF;fontColor=#ffffff;shadow=1;fontSize=14;" parent="1" vertex="1">
          <mxGeometry x="205" y="1480" width="300" height="60" as="geometry" />
        </mxCell>
        <mxCell id="out1" value="train_preprocessed" style="rounded=1;whiteSpace=wrap;html=1;fillColor=#ff6666;strokeColor=#FFFFFF;shadow=1;fontSize=14;" parent="1" vertex="1">
          <mxGeometry x="110" y="1610" width="160" height="40" as="geometry" />
        </mxCell>
        <mxCell id="out2" value="valid_preprocessed" style="rounded=1;whiteSpace=wrap;html=1;fillColor=#ff6666;strokeColor=#FFFFFF;shadow=1;fontSize=14;" parent="1" vertex="1">
          <mxGeometry x="280" y="1610" width="150" height="40" as="geometry" />
        </mxCell>
        <mxCell id="out3" value="scoring_preprocessed" style="rounded=1;whiteSpace=wrap;html=1;fillColor=#ff6666;strokeColor=#FFFFFF;shadow=1;fontSize=14;" parent="1" vertex="1">
          <mxGeometry x="440" y="1610" width="160" height="40" as="geometry" />
        </mxCell>
        <mxCell id="e8" style="edgeStyle=orthogonalEdgeStyle;html=1;shadow=1;fontSize=14;" parent="1" source="rebal" target="drop_force" edge="1">
          <mxGeometry relative="1" as="geometry" />
        </mxCell>
        <mxCell id="e9" style="edgeStyle=orthogonalEdgeStyle;html=1;shadow=1;fontSize=14;" parent="1" source="drop_force" target="conv_dec" edge="1">
          <mxGeometry relative="1" as="geometry" />
        </mxCell>
        <mxCell id="e10" style="edgeStyle=orthogonalEdgeStyle;html=1;shadow=1;fontSize=14;" parent="1" source="conv_dec" target="fill_na" edge="1">
          <mxGeometry relative="1" as="geometry" />
        </mxCell>
        <mxCell id="CmgywpFn_wHd5K9U7j7T-23" style="edgeStyle=orthogonalEdgeStyle;rounded=0;orthogonalLoop=1;jettySize=auto;html=1;exitX=1;exitY=0.5;exitDx=0;exitDy=0;entryX=0;entryY=0.5;entryDx=0;entryDy=0;shadow=1;fontSize=14;" parent="1" source="CmgywpFn_wHd5K9U7j7T-6" target="CmgywpFn_wHd5K9U7j7T-22" edge="1">
          <mxGeometry relative="1" as="geometry" />
        </mxCell>
        <mxCell id="CmgywpFn_wHd5K9U7j7T-6" value="scaling – масштабирование фичей" style="rounded=1;whiteSpace=wrap;html=1;fillColor=#0050ef;strokeColor=#001DBC;fontColor=#ffffff;shadow=1;fontSize=14;" parent="1" vertex="1">
          <mxGeometry x="200" y="880" width="300" height="60" as="geometry" />
        </mxCell>
        <mxCell id="CmgywpFn_wHd5K9U7j7T-21" style="edgeStyle=orthogonalEdgeStyle;rounded=0;orthogonalLoop=1;jettySize=auto;html=1;exitX=0.5;exitY=1;exitDx=0;exitDy=0;entryX=0.557;entryY=0;entryDx=0;entryDy=0;entryPerimeter=0;shadow=1;fontSize=14;" parent="1" source="save_res" target="out3" edge="1">
          <mxGeometry relative="1" as="geometry" />
        </mxCell>
        <mxCell id="CmgywpFn_wHd5K9U7j7T-22" value="&lt;div style=&quot;font-size: 14px;&quot;&gt;scaler.pkl&lt;/div&gt;" style="rounded=1;whiteSpace=wrap;html=1;fillColor=#ff6666;strokeColor=#000000;shadow=1;fontSize=14;" parent="1" vertex="1">
          <mxGeometry x="560" y="890" width="140" height="40" as="geometry" />
        </mxCell>
        <mxCell id="CmgywpFn_wHd5K9U7j7T-24" value="&lt;div style=&quot;font-size: 14px;&quot;&gt;encoder.pkl&lt;/div&gt;" style="rounded=1;whiteSpace=wrap;html=1;fillColor=#ff6666;strokeColor=#000000;shadow=1;fontSize=14;" parent="1" vertex="1">
          <mxGeometry x="560" y="810" width="140" height="40" as="geometry" />
        </mxCell>
        <mxCell id="CmgywpFn_wHd5K9U7j7T-26" value="&lt;div style=&quot;font-size: 14px;&quot;&gt;final_feature_list.txt&lt;/div&gt;" style="rounded=1;whiteSpace=wrap;html=1;fillColor=#ff6666;strokeColor=#FFFFFF;shadow=1;fontSize=14;" parent="1" vertex="1">
          <mxGeometry x="570" y="1400" width="180" height="40" as="geometry" />
        </mxCell>
        <mxCell id="CmgywpFn_wHd5K9U7j7T-27" value="&lt;div style=&quot;font-size: 14px;&quot;&gt;final_categorical_list.txt&lt;/div&gt;" style="rounded=1;whiteSpace=wrap;html=1;fillColor=#ff6666;strokeColor=#FFFFFF;shadow=1;fontSize=14;" parent="1" vertex="1">
          <mxGeometry x="570" y="1450" width="180" height="40" as="geometry" />
        </mxCell>
        <mxCell id="0RdHX4QLqhJlG7mHTZc2-45" value="" style="edgeStyle=orthogonalEdgeStyle;rounded=0;orthogonalLoop=1;jettySize=auto;html=1;" edge="1" parent="1" source="CmgywpFn_wHd5K9U7j7T-35" target="0RdHX4QLqhJlG7mHTZc2-31">
          <mxGeometry relative="1" as="geometry" />
        </mxCell>
        <mxCell id="CmgywpFn_wHd5K9U7j7T-35" value="config.yaml" style="rounded=1;whiteSpace=wrap;html=1;fillColor=#ff6666;strokeColor=#000000;shadow=1;fontSize=14;" parent="1" vertex="1">
          <mxGeometry x="60" y="-40" width="140" height="40" as="geometry" />
        </mxCell>
        <mxCell id="CmgywpFn_wHd5K9U7j7T-41" value="Feature selectors" style="swimlane;startSize=20;horizontal=1;childLayout=treeLayout;horizontalTree=0;sortEdges=1;resizable=0;containerType=tree;fontSize=17;strokeWidth=3;fillColor=#008a00;fontColor=#ffffff;strokeColor=#4D9900;gradientColor=none;swimlaneFillColor=#CCFFCC;glass=0;rounded=1;shadow=1;noLabel=0;movableLabel=0;align=left;" parent="1" vertex="1">
          <mxGeometry x="-100" y="970" width="900" height="340" as="geometry" />
        </mxCell>
        <mxCell id="0RdHX4QLqhJlG7mHTZc2-10" style="edgeStyle=orthogonalEdgeStyle;rounded=0;orthogonalLoop=1;jettySize=auto;html=1;exitX=0.5;exitY=1;exitDx=0;exitDy=0;entryX=0.5;entryY=0;entryDx=0;entryDy=0;shadow=1;" edge="1" parent="CmgywpFn_wHd5K9U7j7T-41" source="drop_corr" target="drop_adv">
          <mxGeometry relative="1" as="geometry" />
        </mxCell>
        <mxCell id="drop_corr" value="drop_correlated – удаление коррелирующих фичей (опционально)" style="rounded=1;whiteSpace=wrap;html=1;fillColor=#008a00;strokeColor=#005700;fontColor=#ffffff;shadow=1;fontSize=14;" parent="CmgywpFn_wHd5K9U7j7T-41" vertex="1">
          <mxGeometry x="300" y="40" width="300" height="60" as="geometry" />
        </mxCell>
        <mxCell id="CmgywpFn_wHd5K9U7j7T-49" style="edgeStyle=orthogonalEdgeStyle;rounded=0;orthogonalLoop=1;jettySize=auto;html=1;exitX=0.5;exitY=1;exitDx=0;exitDy=0;strokeColor=#FFFFFF;shadow=1;" parent="CmgywpFn_wHd5K9U7j7T-41" source="drop_adv" target="fs_noise" edge="1">
          <mxGeometry relative="1" as="geometry" />
        </mxCell>
        <mxCell id="CmgywpFn_wHd5K9U7j7T-50" style="edgeStyle=orthogonalEdgeStyle;rounded=0;orthogonalLoop=1;jettySize=auto;html=1;exitX=0.5;exitY=1;exitDx=0;exitDy=0;strokeColor=#FFFFFF;shadow=1;" parent="CmgywpFn_wHd5K9U7j7T-41" source="drop_adv" target="fs_forward" edge="1">
          <mxGeometry relative="1" as="geometry" />
        </mxCell>
        <mxCell id="CmgywpFn_wHd5K9U7j7T-51" style="edgeStyle=orthogonalEdgeStyle;rounded=0;orthogonalLoop=1;jettySize=auto;html=1;exitX=0.5;exitY=1;exitDx=0;exitDy=0;entryX=0.5;entryY=0;entryDx=0;entryDy=0;strokeColor=#FFFFFF;shadow=1;" parent="CmgywpFn_wHd5K9U7j7T-41" source="drop_adv" target="fs_perm" edge="1">
          <mxGeometry relative="1" as="geometry" />
        </mxCell>
        <mxCell id="0RdHX4QLqhJlG7mHTZc2-11" style="edgeStyle=orthogonalEdgeStyle;rounded=0;orthogonalLoop=1;jettySize=auto;html=1;exitX=0.5;exitY=1;exitDx=0;exitDy=0;shadow=1;" edge="1" parent="CmgywpFn_wHd5K9U7j7T-41" source="drop_adv" target="fs_noise">
          <mxGeometry relative="1" as="geometry" />
        </mxCell>
        <mxCell id="0RdHX4QLqhJlG7mHTZc2-12" style="edgeStyle=orthogonalEdgeStyle;rounded=0;orthogonalLoop=1;jettySize=auto;html=1;exitX=0.5;exitY=1;exitDx=0;exitDy=0;entryX=0.5;entryY=0;entryDx=0;entryDy=0;shadow=1;" edge="1" parent="CmgywpFn_wHd5K9U7j7T-41" source="drop_adv" target="fs_forward">
          <mxGeometry relative="1" as="geometry" />
        </mxCell>
        <mxCell id="0RdHX4QLqhJlG7mHTZc2-13" style="edgeStyle=orthogonalEdgeStyle;rounded=0;orthogonalLoop=1;jettySize=auto;html=1;exitX=0.5;exitY=1;exitDx=0;exitDy=0;entryX=0.5;entryY=0;entryDx=0;entryDy=0;shadow=1;" edge="1" parent="CmgywpFn_wHd5K9U7j7T-41" source="drop_adv" target="fs_perm">
          <mxGeometry relative="1" as="geometry" />
        </mxCell>
        <mxCell id="drop_adv" value="drop_adversarial – удаление adversarial фичей (опционально)" style="rounded=1;whiteSpace=wrap;html=1;fillColor=#008a00;strokeColor=#FFFFFF;fontColor=#ffffff;shadow=1;fontSize=14;" parent="CmgywpFn_wHd5K9U7j7T-41" vertex="1">
          <mxGeometry x="300" y="150" width="300" height="60" as="geometry" />
        </mxCell>
        <mxCell id="e15" style="edgeStyle=orthogonalEdgeStyle;html=1;shadow=1;" parent="CmgywpFn_wHd5K9U7j7T-41" source="drop_corr" target="drop_adv" edge="1">
          <mxGeometry relative="1" as="geometry" />
        </mxCell>
        <mxCell id="fs_forward" value="Forward Selection" style="rounded=1;whiteSpace=wrap;html=1;fillColor=#008a00;strokeColor=#FFFFFF;fontColor=#ffffff;shadow=1;fontSize=14;" parent="CmgywpFn_wHd5K9U7j7T-41" vertex="1">
          <mxGeometry x="20" y="260" width="260" height="60" as="geometry" />
        </mxCell>
        <mxCell id="fs_noise" value="Noise Selection" style="rounded=1;whiteSpace=wrap;html=1;fillColor=#008a00;strokeColor=#FFFFFF;fontColor=#ffffff;shadow=1;fontSize=14;" parent="CmgywpFn_wHd5K9U7j7T-41" vertex="1">
          <mxGeometry x="320" y="260" width="260" height="60" as="geometry" />
        </mxCell>
        <mxCell id="fs_perm" value="Permutation Selection" style="rounded=1;whiteSpace=wrap;html=1;fillColor=#008a00;strokeColor=#FFFFFF;fontColor=#ffffff;shadow=1;fontSize=14;" parent="CmgywpFn_wHd5K9U7j7T-41" vertex="1">
          <mxGeometry x="620" y="260" width="260" height="60" as="geometry" />
        </mxCell>
        <mxCell id="CmgywpFn_wHd5K9U7j7T-48" style="edgeStyle=orthogonalEdgeStyle;rounded=0;orthogonalLoop=1;jettySize=auto;html=1;exitX=0.5;exitY=1;exitDx=0;exitDy=0;entryX=0.5;entryY=0;entryDx=0;entryDy=0;shadow=1;" parent="1" source="fs_forward" target="save_art" edge="1">
          <mxGeometry relative="1" as="geometry" />
        </mxCell>
        <mxCell id="0RdHX4QLqhJlG7mHTZc2-7" style="edgeStyle=orthogonalEdgeStyle;rounded=0;orthogonalLoop=1;jettySize=auto;html=1;exitX=0.5;exitY=1;exitDx=0;exitDy=0;shadow=1;" edge="1" parent="1" source="CmgywpFn_wHd5K9U7j7T-6" target="drop_corr">
          <mxGeometry relative="1" as="geometry" />
        </mxCell>
        <mxCell id="0RdHX4QLqhJlG7mHTZc2-44" value="" style="edgeStyle=orthogonalEdgeStyle;rounded=0;orthogonalLoop=1;jettySize=auto;html=1;" edge="1" parent="1" source="0RdHX4QLqhJlG7mHTZc2-30" target="0RdHX4QLqhJlG7mHTZc2-31">
          <mxGeometry relative="1" as="geometry" />
        </mxCell>
        <mxCell id="0RdHX4QLqhJlG7mHTZc2-30" value="Hive context, &lt;br&gt;Spark context" style="rounded=1;whiteSpace=wrap;html=1;fillColor=#ff6666;strokeColor=#000000;shadow=1;fontSize=14;" vertex="1" parent="1">
          <mxGeometry x="220" y="-40" width="140" height="40" as="geometry" />
        </mxCell>
        <mxCell id="0RdHX4QLqhJlG7mHTZc2-46" value="" style="edgeStyle=orthogonalEdgeStyle;rounded=0;orthogonalLoop=1;jettySize=auto;html=1;" edge="1" parent="1" source="0RdHX4QLqhJlG7mHTZc2-31" target="run">
          <mxGeometry relative="1" as="geometry" />
        </mxCell>
        <mxCell id="0RdHX4QLqhJlG7mHTZc2-31" value="PreprocessingPipeline()" style="rounded=1;whiteSpace=wrap;html=1;fillColor=#0050ef;strokeColor=#001DBC;fontColor=#ffffff;shadow=1;fontSize=14;" vertex="1" parent="1">
          <mxGeometry x="110" y="70" width="180" height="60" as="geometry" />
        </mxCell>
      </root>
    </mxGraphModel>
  </diagram>
</mxfile>
